<?xml version="1.0" encoding="UTF-8"?><svg id="Lag_1" xmlns="http://www.w3.org/2000/svg" viewBox="0 0 924.95074 642.93237"><defs><style>.cls-1{fill:#8a949c;}</style></defs><path class="cls-1" d="M914.83856,167.2489l-.0011-.00745c-6.95178-33.70477-18.26416-63.14807-33.62482-87.5166-16.05243-25.44299-37.61554-45.34863-64.09778-59.16687C790.93213,6.91662,759.03516,0,722.31073,0,669.62769,0,621.73798,14.17432,579.96869,42.12959c-28.85492,19.31305-55.05042,45.24097-78.0791,77.2467-11.01715-27.80823-27.47034-51.8847-49.08777-71.77759C418.45966,16.01404,373.31464,0,318.62238,0c-51.75891,0-99.51117,13.70319-141.92853,40.72797-22.99036,14.64648-43.93524,32.89996-62.53302,54.46838V9.09424H0V642.93237H120.98041V304.57172c0-56.44464,23.52863-109.97827,64.55292-146.87433,.97528-.8772,1.96021-1.74591,2.95679-2.60718,31.39069-27.16333,66.75714-40.93579,105.11774-40.93579,36.99945,0,62.29321,12.15973,79.59802,38.26465,18.71826,28.25165,28.20898,75.31952,28.20898,139.89374v350.61951h120.98151V308.42487c0-57.08307,23.43481-111.6485,64.29065-149.69995,.97211-.90491,1.95276-1.80243,2.94189-2.69031,30.97607-27.7901,66.4353-41.88019,105.3949-41.88019,36.31622,0,61.65259,12.40173,79.73022,39.02679,19.38226,28.56708,29.20984,75.37811,29.20984,139.13159v350.61951h120.98688V276.22943c0-39.66949-3.40234-76.33636-10.11218-108.98053Z"/></svg>