<?xml version="1.0" encoding="UTF-8"?><svg id="Lag_1" xmlns="http://www.w3.org/2000/svg" viewBox="0 0 924.95066 642.93231"><defs><style>.cls-1{fill:#c399c6;}.cls-2{fill:#c499c6;}</style></defs><path class="cls-2" d="M904.14703,169.44632c-6.68637-32.41661-17.50737-60.64264-32.16559-83.89732-15.00997-23.7903-35.16396-42.39874-59.90983-55.31209-24.61051-12.82115-54.81058-19.32206-89.76136-19.32206-50.48197,0-96.33049,13.55395-136.27073,40.2856-33.02683,22.10458-62.36673,53.16057-87.46115,92.52523-9.81692-35.04937-27.63126-64.59552-53.1659-88.09323-32.26312-29.67245-74.92193-44.7176-126.79064-44.7176-49.64737,0-95.42607,13.12706-136.06395,39.01771-30.45802,19.40466-57.02765,45.24522-79.31237,77.08198V20.00856H10.91428V632.01705H110.06566V304.57167c0-58.93303,24.35047-115.5803,68.16889-154.98903,1.02835-.92486,2.06603-1.84025,3.11301-2.74613,33.43134-28.92899,71.20089-43.59681,112.26032-43.59681,40.43589,0,69.44962,14.11515,88.69653,43.15073,19.92269,30.0695,30.02473,79.16474,30.02473,145.9219v339.70473h99.15192V308.4251c0-59.63609,24.13267-117.04774,67.77257-157.69282,1.01955-.94959,2.04828-1.8904,3.08617-2.82241,33.03962-29.64101,70.95147-44.67016,112.68348-44.67016,39.70894,0,68.74506,14.33259,88.76261,43.81318,20.63151,30.40899,31.09223,79.28145,31.09223,145.25944v339.70473h99.15725V276.229c0-38.93457-3.32667-74.85905-9.88833-106.78268Z"/><path class="cls-1" d="M924.95066,642.93231h-120.98683V292.31279c0-63.75346-9.82757-110.56448-29.20985-139.1316-18.07762-26.62505-43.414-39.02677-79.7302-39.02677-38.95962,0-74.41883,14.0901-105.39488,41.88018-.98915,.88789-1.96978,1.78538-2.94188,2.69033-40.85585,38.05147-64.29067,92.6169-64.29067,149.69997v334.50741h-120.9815V292.31279c0-64.5742-9.49075-111.6421-28.20898-139.89372-17.30485-26.1049-42.59859-38.26465-79.59803-38.26465-38.36058,0-73.72706,13.77246-105.11774,40.93579-.99661,.86125-1.9815,1.72995-2.9568,2.60719-41.02426,36.89604-64.55288,90.42968-64.55288,146.87428v338.36063H0V9.09424H114.16082V95.19637c18.59778-21.56844,39.54266-39.82193,62.53301-54.46843C219.11122,13.70318,266.86342,0,318.62234,0c54.69227,0,99.83729,16.01404,134.17944,47.59872,21.61747,19.89284,38.07066,43.96934,49.08778,71.77754,23.02872-32.0057,49.22421-57.93366,78.07912-77.24666C621.738,14.1743,669.62771,0,722.31076,0c36.72443,0,68.62141,6.91661,94.80412,20.55796,26.48222,13.81829,48.04533,33.72393,64.09775,59.1669,15.36065,24.36855,26.67302,53.81183,33.6248,87.51658l.00107,.00746c6.70982,32.64418,10.11217,69.31105,10.11217,108.98056v366.70284Zm-99.15725-21.82958h77.32766V276.22946c0-38.1943-3.25099-73.37851-9.66343-104.57733h0c-6.42097-31.1306-16.75271-58.14258-30.70957-80.2834-13.96432-22.13336-32.71453-39.44673-55.72512-51.45514-23.03085-11.99881-51.53508-18.08402-84.7122-18.08402-48.28302,0-92.08821,12.9336-130.19938,38.44159-31.69659,21.21349-60.06865,51.26647-84.32848,89.32221l-13.12759,20.59207-6.58725-23.51583c-9.25199-33.03323-26.08997-60.96081-50.04602-83.0057-30.18302-27.7581-70.35563-41.83434-119.3997-41.83434-47.5369,0-91.34208,12.55201-130.19938,37.30854-29.15336,18.57326-54.80205,43.51633-76.23512,74.1353l-19.8566,28.3678V30.92382H21.82958V621.10273H99.15085V304.57168c0-62.62574,26.16459-122.07511,71.78393-163.1047,1.08189-.9721,2.17336-1.9346,3.27444-2.88645,35.46774-30.69252,75.64141-46.25569,119.39864-46.25569,44.37971,0,76.36836,15.71239,97.79396,48.03467,21.12929,31.89165,31.84262,83.01529,31.84262,151.95328v328.78994h77.32234V308.4249c0-63.12032,25.96846-123.50767,71.24779-165.67991,1.07336-.99875,2.14992-1.98364,3.23606-2.95787,35.10427-31.49407,75.46874-47.46228,119.97316-47.46228,43.60054,0,75.58812,15.8968,97.7929,48.59746,21.88181,32.25299,32.97674,83.1869,32.97674,151.39049v328.78994Z"/></svg>