<?xml version="1.0" encoding="UTF-8"?><svg id="Lag_1" xmlns="http://www.w3.org/2000/svg" viewBox="0 0 1080.51248 174.40854"><defs><style>.cls-1{fill:#8a949c;}</style></defs><path class="cls-1" d="M182.76874,56.56281c-3.07915-4.88095-7.21532-8.69948-12.29227-11.35014-5.07289-2.64255-11.33257-3.98208-18.60331-3.98208-10.55805,0-20.14288,2.83179-28.48551,8.41427-7.87089,5.26754-14.75775,12.97622-20.49027,22.93412-1.71529-8.99414-5.7163-16.43385-11.91109-22.13527-6.64761-6.11369-15.4755-9.21312-26.239-9.21312-10.39314,0-19.97257,2.74528-28.47199,8.16015-7.82358,4.98503-14.43334,12.00706-19.6752,20.89848v-27.09462H0V171.95387H18.07209V93.51261c3.05752-10.64591,8.42779-19.34944,15.9594-25.86864,7.52486-6.51109,16.04321-9.81327,25.31715-9.81327,9.19825,0,16.10538,3.38328,20.52947,10.05657,4.48356,6.76656,6.7571,17.67199,6.7571,32.41217v71.65443h18.07209V93.81403c3.05887-10.50263,8.38994-19.22238,15.84586-25.9173,7.44511-6.6787,16.0013-10.06603,25.43069-10.06603,9.03605,0,15.94453,3.42653,20.53352,10.18363,4.64305,6.84361,6.9977,17.70579,6.9977,32.28511v71.65443h18.07344V96.8283c0-8.29127-.70693-15.93237-2.10053-22.70974-1.4017-6.8017-3.66308-12.70724-6.71925-17.55575Z"/><path class="cls-1" d="M314.59365,50.35991c-9.4794-6.05827-20.71059-9.12931-33.38268-9.12931-12.34498,0-23.53157,3.02643-33.24887,8.9955-9.71189,5.9623-17.43274,14.03865-22.94495,24.00331-5.51353,9.96331-8.30882,21.05798-8.30882,32.97583,0,9.17797,1.62743,17.90448,4.83635,25.93487,3.20621,8.03174,7.75329,15.22003,13.51149,21.36481,5.76361,6.15154,12.69237,11.05953,20.59435,14.58609,7.90739,3.52791,16.58929,5.31755,25.80646,5.31755,8.38453,0,16.35139-1.37737,23.6789-4.09292,7.33157-2.7196,13.80616-6.60436,19.24401-11.54884,5.44866-4.95259,9.55104-10.56481,12.1963-16.6812l.31765-.73262-15.83099-4.29432-.2379,.55284c-2.87099,6.69897-8.01552,12.20306-15.29167,16.3595-7.30318,4.17402-15.15515,6.29076-23.33963,6.29076-8.01687,0-15.53632-2.06133-22.34884-6.12586-6.82333-4.06994-12.44095-9.66053-16.69742-16.61227-4.14158-6.7598-6.68275-14.57662-7.56-23.24501h109.23952l.13111-.52581c.17572-.70693,.26493-1.70718,.26493-2.96966v-3.77662c0-11.76241-2.75339-22.74083-8.18448-32.62979-5.42974-9.88896-12.98163-17.96936-22.44481-24.01683Zm13.48311,50.50859h-92.99491c.72451-8.61297,3.18728-16.38654,7.32751-23.11254,4.25377-6.90849,9.82814-12.38553,16.56901-16.2757,6.73817-3.88746,14.30223-5.85822,22.4786-5.85822,8.17502,0,15.78098,1.97212,22.60431,5.86093,6.81928,3.89016,12.43419,9.32666,16.68931,16.1581,4.13887,6.64896,6.60165,14.46173,7.32616,23.22744Z"/><path class="cls-1" d="M552.37481,56.56281c-3.07915-4.88095-7.21532-8.69948-12.29227-11.35014-5.07289-2.64255-11.33257-3.98208-18.60331-3.98208-10.55805,0-20.14288,2.83179-28.48551,8.41427-7.87089,5.26754-14.75775,12.97622-20.49027,22.93412-1.71529-8.99414-5.7163-16.43385-11.91109-22.13527-6.64761-6.11369-15.4755-9.21312-26.239-9.21312-10.39314,0-19.97257,2.74528-28.47199,8.16015-7.82358,4.98503-14.43334,12.00706-19.6752,20.89848v-27.09462h-16.6001V171.95387h18.07209V93.51261c3.05752-10.64591,8.42779-19.34944,15.9594-25.86864,7.52486-6.51109,16.04321-9.81327,25.31715-9.81327,9.19825,0,16.10538,3.38328,20.52947,10.05657,4.48356,6.76656,6.7571,17.67199,6.7571,32.41217v71.65443h18.07209V93.81403c3.05887-10.50263,8.38994-19.22238,15.84586-25.9173,7.44511-6.6787,16.0013-10.06603,25.43069-10.06603,9.03605,0,15.94453,3.42653,20.53352,10.18363,4.64305,6.84361,6.9977,17.70579,6.9977,32.28511v71.65443h18.07344V96.8283c0-8.29127-.70693-15.93237-2.10053-22.70974-1.4017-6.8017-3.66308-12.70724-6.71925-17.55575Z"/><path class="cls-1" d="M684.19972,50.35991c-9.4794-6.05827-20.71059-9.12931-33.38268-9.12931-12.34498,0-23.53157,3.02643-33.24887,8.9955-9.71189,5.9623-17.43274,14.03865-22.94494,24.00331-5.51354,9.96331-8.30884,21.05798-8.30884,32.97583,0,9.17797,1.62743,17.90448,4.83635,25.93487,3.20621,8.03174,7.75329,15.22003,13.51149,21.36481,5.76361,6.15154,12.69237,11.05953,20.59435,14.58609,7.90739,3.52791,16.58929,5.31755,25.80646,5.31755,8.38453,0,16.35139-1.37737,23.6789-4.09292,7.33157-2.7196,13.80616-6.60436,19.24401-11.54884,5.44866-4.95259,9.55104-10.56481,12.1963-16.6812l.31765-.73262-15.83099-4.29432-.23793,.55284c-2.87096,6.69897-8.01549,12.20306-15.29164,16.3595-7.30318,4.17402-15.15515,6.29076-23.33963,6.29076-8.01687,0-15.53632-2.06133-22.34884-6.12586-6.82333-4.06994-12.44095-9.66053-16.69742-16.61227-4.14158-6.7598-6.68275-14.57662-7.56-23.24501h109.23952l.13111-.52581c.17572-.70693,.26493-1.70718,.26493-2.96966v-3.77662c0-11.76241-2.75339-22.74083-8.18448-32.62979-5.42974-9.88896-12.98163-17.96936-22.44481-24.01683Zm13.48311,50.50859h-92.99491c.72451-8.61297,3.18728-16.38654,7.32751-23.11254,4.25377-6.90849,9.82814-12.38553,16.56901-16.2757,6.73817-3.88746,14.30223-5.85822,22.4786-5.85822,8.17502,0,15.78098,1.97212,22.60431,5.86093,6.81928,3.89016,12.43419,9.32666,16.68931,16.1581,4.13887,6.64896,6.60165,14.46173,7.32616,23.22744Z"/><path class="cls-1" d="M839.6454,56.56957c-2.99534-4.8823-7.04771-8.70218-12.04626-11.35419-4.99179-2.64391-11.12846-3.98478-18.2397-3.98478-7.56811,0-14.99835,1.32736-22.08391,3.94693-7.0788,2.62093-13.50608,6.31374-19.10073,10.97707-4.93096,4.11184-9.08065,8.88331-12.36256,14.21032v-27.17032h-16.6001V171.95387h18.07209V93.51801c2.08836-6.80846,5.53922-12.9546,10.25662-18.26809,4.73497-5.33782,10.3215-9.62538,16.60145-12.74373,6.25832-3.10213,12.6775-4.6755,19.08181-4.6755,9.19419,0,16.01617,3.38058,20.27805,10.04711,4.32406,6.76386,6.5165,17.67199,6.5165,32.42163v71.65443h18.07344V96.8283c0-8.29262-.66503-15.93102-1.97482-22.70298-1.32466-6.80846-3.50223-12.71399-6.47189-17.55575Z"/><path class="cls-1" d="M938.2674,152.06916c-.52716,.42173-2.11675,1.3206-6.70303,3.21432h-.00135c-3.65632,1.51254-7.77898,2.27895-12.25172,2.27895-3.75499,0-7.12341-1.11379-10.01197-3.31029-2.84801-2.16406-4.44976-5.47975-4.75795-9.80651V57.8307h29.45062v-14.6361h-29.45062V0h-18.07344V43.1946h-17.67064v14.6361h17.67064v91.23906c0,5.53517,1.27735,10.26744,3.79686,14.06163,2.51823,3.79419,5.96369,6.65707,10.24179,8.50889,4.24431,1.83695,8.83735,2.76826,13.65072,2.76826,4.61737,0,8.96846-.50283,12.92891-1.49362,3.96045-.98944,7.38834-2.16135,10.19039-3.48195,2.81287-1.32195,4.80255-2.19785,6.0826-2.67635l.62178-.23384-4.93367-15.07675-.77993,.62313Z"/><path class="cls-1" d="M1075.80049,82.30575c-3.12646-7.93442-7.63164-15.06864-13.39254-21.20666-5.76631-6.14343-12.61127-11.0406-20.34293-14.55635-7.75464-3.52521-16.35545-5.31214-25.56451-5.31214-9.21447,0-17.85582,1.78693-25.68616,5.31079-7.81953,3.51845-14.70639,8.41562-20.46729,14.5577-5.76496,6.13802-10.27014,13.27224-13.39254,21.20666-3.12646,7.93172-4.71199,16.59875-4.71199,25.75915,0,8.83329,1.58553,17.33407,4.71199,25.26849,3.1224,7.93172,7.58568,15.06729,13.26548,21.20801,5.68521,6.14343,12.53152,11.04195,20.34969,14.5604,7.83169,3.52115,16.5555,5.30673,25.93082,5.30673,9.20636,0,17.84771-1.78558,25.68481-5.30673,7.82088-3.52115,14.66719-8.41968,20.34969-14.5604,5.67304-6.13262,10.13632-13.26819,13.26548-21.20801,3.12646-7.94388,4.71199-16.44601,4.71199-25.26849,0-9.14959-1.58553-17.81662-4.71199-25.75915Zm-13.60746,25.26849c0,9.26448-2.11945,17.88556-6.29752,25.62534-4.18078,7.73842-9.79975,13.92511-16.70148,18.38704-6.89091,4.45382-14.60906,6.71249-22.93953,6.71249-8.33857,0-16.05808-2.21812-22.94494-6.59219-6.90038-4.38083-12.4761-10.44451-16.57307-18.02208-4.09832-7.57757-6.17587-16.1162-6.17587-25.37798,0-9.42263,2.07755-18.04236,6.17587-25.62263,4.09968-7.58298,9.6808-13.77102,16.58794-18.3938,6.88821-4.61197,14.60231-6.95039,22.93007-6.95039,8.33182,0,16.04997,2.25732,22.93953,6.71114,6.90308,4.46463,12.52205,10.61212,16.70283,18.27214,4.17807,7.66138,6.29617,16.15675,6.29617,25.25092Z"/></svg>