<?xml version="1.0" encoding="UTF-8"?><svg id="Lag_1" xmlns="http://www.w3.org/2000/svg" viewBox="0 0 904.06299 904.06299"><defs><style>.cls-1{fill:#4f5053;}.cls-2{opacity:.25;}</style></defs><g class="cls-2"><path class="cls-1" d="M768.79297,904.06299H135.27002C60.68213,904.06299,0,843.38135,0,768.79297V135.27002C0,60.68213,60.68213,0,135.27002,0H768.79297c74.58838,0,135.27002,60.68213,135.27002,135.27002V768.79297c0,74.58838-60.68164,135.27002-135.27002,135.27002ZM135.27002,70c-35.99023,0-65.27002,29.27979-65.27002,65.27002V768.79297c0,35.98975,29.27979,65.27002,65.27002,65.27002H768.79297c35.98975,0,65.27002-29.28027,65.27002-65.27002V135.27002c0-35.99023-29.28027-65.27002-65.27002-65.27002H135.27002Z"/></g></svg>